# xmcd CD database file
#
# Track frame offsets:
#	150
#	17441
#	35260
#	56001
#	74447
#	103950
#	136499
#	159270
#	185746
#	219764
#
# Disc length: 3188 seconds
#
# Revision: 0
# Processed by: cddbd v1.5PL3 Copyright (c) Steve Scherf et al.
# Submitted via: CDex 1.51
#
DISCID=870c720a
DTITLE=Cowboy Junkies - 200 More Miles- Live Performances 1985-1994 [CD2]
DYEAR=1994
DGENRE=Country
TTITLE0=Sweet Jane
TTITLE1=If You Were the Woman and I Was the Man
TTITLE2=Pale Sun
TTITLE3=Hunted
TTITLE4=Lost My Driving Wheel
TTITLE5=Forgive Me
TTITLE6=Misguided Angel
TTITLE7=I'm So Lonesome I Could Cry
TTITLE8=Walking After Midnight
TTITLE9=Bad Boy
EXTD=YEAR: 1994
EXTT0=
EXTT1=
EXTT2=
EXTT3=
EXTT4=
EXTT5=
EXTT6=
EXTT7=
EXTT8=
EXTT9=
PLAYORDER=
